# xmcd
#
# Track frame offsets: 
#        150
#        17272
#        34017
#        52777
#        71017
#        89144
#        109990
#        127106
#        145230
#        171342
#        195075
#
# Disc length: 2886 seconds
#
# Revision: 20
# Processed by: cddbd v1.5.2PL0 Copyright (c) Steve Scherf et al.
# Submitted via: ExactAudioCopyFreeDBPlugin 1.0
#
DISCID=930b440b
DTITLE=热销170万张 - Adele-21专辑
DYEAR=2011
DGENRE=Pop
TTITLE0=Rolling In The Deep
TTITLE1=Rumour Has It
TTITLE2=Turning Tables
TTITLE3=Don't You Remember
TTITLE4=Set Fire To The Rain
TTITLE5=He Won't Go
TTITLE6=Take It All
TTITLE7=I'll Be Waiting
TTITLE8=One And Only
TTITLE9=Lovesong
TTITLE10=Someone Like You
EXTD=Ano 2011 - M. P. A.
EXTT0=Adele21Albun
EXTT1=
EXTT2=
EXTT3=
EXTT4=
EXTT5=
EXTT6=
EXTT7=
EXTT8=
EXTT9=
EXTT10=
PLAYORDER=
